<?xml version="1.0" encoding="UTF-8"?>
<svg width="128px" height="128px" viewBox="0 0 128 128" version="1.1" xmlns="http://www.w3.org/2000/svg" xmlns:xlink="http://www.w3.org/1999/xlink">
    <title>Icon-128</title>
    <defs>
        <filter x="-39.0%" y="-34.2%" width="177.9%" height="168.4%" filterUnits="objectBoundingBox" id="filter-1">
            <feOffset dx="0" dy="6" in="SourceAlpha" result="shadowOffsetOuter1"></feOffset>
            <feGaussianBlur stdDeviation="5.5" in="shadowOffsetOuter1" result="shadowBlurOuter1"></feGaussianBlur>
            <feColorMatrix values="0 0 0 0 0   0 0 0 0 0   0 0 0 0 0  0 0 0 0.5 0" type="matrix" in="shadowBlurOuter1" result="shadowMatrixOuter1"></feColorMatrix>
            <feMerge>
                <feMergeNode in="shadowMatrixOuter1"></feMergeNode>
                <feMergeNode in="SourceGraphic"></feMergeNode>
            </feMerge>
        </filter>
        <polygon id="path-2" points="0.0237037037 0.0296296296 85.113679 0.0296296296 85.113679 76.4136296 0.0237037037 76.4136296"></polygon>
    </defs>
    <g id="Icon-128" stroke="none" stroke-width="1" fill="none" fill-rule="evenodd">
        <g id="Logo2-Vector" filter="url(#filter-1)" transform="translate(22.755556, 14.472222)">
            <g id="Group-3" transform="translate(0.000000, 20.293210)">
                <mask id="mask-3" fill="white">
                    <use xlink:href="#path-2"></use>
                </mask>
                <g id="Clip-2"></g>
                <path d="M72.4400988,48.3310617 C69.3661235,52.0750617 65.6940247,55.0052346 61.4230123,57.1156543 C57.1496296,59.2288395 52.6131358,60.2844444 47.8131358,60.2844444 C42.1471605,60.2844444 36.8679506,58.8219259 31.9715556,55.8921481 C27.0751605,52.9639506 23.2090864,49.0283457 20.3780741,44.0825679 C17.5450864,39.1383704 16.1295802,33.785284 16.1295802,28.0244938 C16.1295802,22.2640988 17.5450864,16.9129877 20.3780741,11.9668148 C20.4266667,11.8826667 20.4807901,11.8040494 20.5293827,11.7202963 L8.83871605,0.0296296296 C7.98064198,1.24839506 7.16918519,2.51377778 6.40869136,3.8297284 C2.13530864,11.2244938 0,19.289284 0,28.0244938 C0,36.7624691 2.13530864,44.8276543 6.40869136,52.2196543 C10.6797037,59.6136296 16.4898765,65.4937284 23.8344691,69.8611358 C31.1794568,74.2313086 39.1723457,76.4136296 47.8131358,76.4136296 C55.1087407,76.4136296 62.0215309,74.8298272 68.5515062,71.6618272 C75.0799012,68.493037 80.5997037,64.0782222 85.113679,58.4118519 L72.4400988,48.3310617" id="Fill-1" fill="#F47B93" mask="url(#mask-3)"></path>
            </g>
            <g id="Group-10" transform="translate(12.891975, 0.000000)" fill="#E2223C">
                <path d="M54.2918272,4.17706173 C48.0988395,1.44046914 41.6407654,0.0723703704 34.9211605,0.0723703704 C26.2803704,0.0723703704 18.2874815,2.2325679 10.9424938,6.55335802 C6.822,8.97706173 3.19454321,11.8949877 0.0411604938,15.2865926 L11.4774074,26.7228395 C13.6376049,24.2983457 16.1415062,22.2250617 19.007679,20.5227407 C21.2460988,19.1925679 23.583679,18.1737037 26.0172593,17.4578519 L26.0172593,62.8397778 C26.1634321,62.9610617 26.392963,63.1412099 26.6900494,63.3513827 C28.7724198,64.8257531 34.3404198,67.8384938 40.3852593,63.3513827 C40.6049136,63.1886173 40.824963,63.0128148 41.0454074,62.8295062 L41.0454074,16.8170617 C43.2988395,17.2717778 45.5068395,17.9741975 47.667037,18.9385432 C51.7464444,20.7633333 55.3221481,23.3557284 58.3961235,26.7153333 L70.3495062,15.9139506 C65.8355309,10.8263457 60.4844198,6.91325926 54.2918272,4.17706173" id="Fill-9"></path>
            </g>
        </g>
    </g>
</svg>